<?xml version="1.0" encoding="UTF-8" standalone="no"?>
<!DOCTYPE svg PUBLIC "-//W3C//DTD SVG 1.1//EN" "http://www.w3.org/Graphics/SVG/1.1/DTD/svg11.dtd">
<!-- Created with Vectornator (http://vectornator.io/) -->
<svg height="1024.0px" stroke-miterlimit="10" style="fill-rule:nonzero;clip-rule:evenodd;stroke-linecap:round;stroke-linejoin:round;" version="1.1" viewBox="0 0 1024 1024" width="1024.0px" xml:space="preserve" xmlns="http://www.w3.org/2000/svg" xmlns:xlink="http://www.w3.org/1999/xlink">
<defs/>
<path d="M0 0L1024 0L1024 1024L0 1024L0 0Z" fill="#ffffff" fill-rule="nonzero" opacity="1" stroke="none"/>
<g id="Background">
<path d="M0 0L1024 0L1024 1024L0 1024L0 0Z" fill="#11055c" fill-rule="nonzero" opacity="1" stroke="none"/>
</g>
<g id="Text">
<g fill="#dddddd" opacity="1" stroke="none">
<path d="M394.721 881.277C395.861 901.622 400.662 918.143 409.126 930.838C425.239 954.601 453.641 966.482 494.331 966.482C512.56 966.482 529.161 963.878 544.135 958.67C573.107 948.579 587.592 930.512 587.592 904.471C587.592 884.939 581.489 871.023 569.282 862.723C556.912 854.585 537.544 847.505 511.176 841.482L462.592 830.496C430.854 823.335 408.393 815.441 395.21 806.814C372.423 791.84 361.03 769.461 361.03 739.676C361.03 707.449 372.179 681.001 394.477 660.33C416.775 639.66 448.351 629.324 489.204 629.324C526.801 629.324 558.743 638.398 585.029 656.546C611.315 674.694 624.458 703.706 624.458 743.582L578.803 743.582C576.362 724.376 571.154 709.646 563.178 699.393C548.367 680.675 523.221 671.316 487.739 671.316C459.093 671.316 438.504 677.339 425.971 689.383C413.439 701.427 407.173 715.424 407.173 731.375C407.173 748.953 414.497 761.811 429.145 769.949C438.748 775.158 460.477 781.668 494.331 789.48L544.624 800.955C568.875 806.489 587.592 814.057 600.776 823.66C623.562 840.424 634.956 864.757 634.956 896.658C634.956 936.372 620.511 964.773 591.621 981.863C562.731 998.953 529.161 1007.5 490.913 1007.5C446.316 1007.5 411.404 996.105 386.176 973.318C360.949 950.695 348.579 920.014 349.067 881.277L394.721 881.277Z"/>
<path d="M696.479 638.357L743.842 638.357L743.842 813.162L918.647 638.357L985.786 638.357L836.616 782.889L989.936 997L926.704 997L801.215 817.068L743.842 872L743.842 997L696.479 997L696.479 638.357Z"/>
</g>
<g fill="#ffffff" opacity="1" stroke="none">
<path d="M34.1247 116.459C34.4163 121.667 35.6455 125.896 37.8122 129.146C41.9372 135.23 49.208 138.271 59.6247 138.271C64.2913 138.271 68.5413 137.605 72.3747 136.271C79.7913 133.688 83.4997 129.063 83.4997 122.396C83.4997 117.396 81.9372 113.834 78.8122 111.709C75.6455 109.626 70.6872 107.813 63.9372 106.271L51.4997 103.459C43.3747 101.626 37.6247 99.6047 34.2497 97.3964C28.4163 93.5631 25.4997 87.8339 25.4997 80.2089C25.4997 71.9589 28.3538 65.1881 34.0622 59.8964C39.7705 54.6047 47.8538 51.9589 58.3122 51.9589C67.9372 51.9589 76.1142 54.2818 82.8434 58.9277C89.5726 63.5735 92.9372 71.0006 92.9372 81.2089L81.2497 81.2089C80.6247 76.2922 79.2913 72.5214 77.2497 69.8964C73.458 65.1047 67.0205 62.7089 57.9372 62.7089C50.6038 62.7089 45.333 64.2506 42.1247 67.3339C38.9163 70.4172 37.3122 74.0006 37.3122 78.0839C37.3122 82.5839 39.1872 85.8756 42.9372 87.9589C45.3955 89.2922 50.958 90.9589 59.6247 92.9589L72.4997 95.8964C78.708 97.3131 83.4997 99.2506 86.8747 101.709C92.708 106.001 95.6247 112.23 95.6247 120.396C95.6247 130.563 91.9267 137.834 84.5309 142.209C77.1351 146.584 68.5413 148.771 58.7497 148.771C47.333 148.771 38.3955 145.855 31.9372 140.021C25.4788 134.23 22.3122 126.376 22.4372 116.459L34.1247 116.459Z"/>
<path d="M121.125 79.1464L121.125 123.584C121.125 127.001 121.666 129.792 122.75 131.959C124.75 135.959 128.479 137.959 133.937 137.959C141.77 137.959 147.104 134.459 149.937 127.459C151.479 123.709 152.25 118.563 152.25 112.021L152.25 79.1464L163.5 79.1464L163.5 146.084L152.875 146.084L153 136.209C151.541 138.751 149.729 140.896 147.562 142.646C143.27 146.146 138.062 147.896 131.937 147.896C122.395 147.896 115.895 144.709 112.437 138.334C110.562 134.917 109.625 130.355 109.625 124.646L109.625 79.1464L121.125 79.1464Z"/>
<path d="M181.062 79.4589L192.5 79.4589L192.5 146.084L181.062 146.084L181.062 79.4589ZM181.062 54.2714L192.5 54.2714L192.5 67.0214L181.062 67.0214L181.062 54.2714Z"/>
<path d="M209.25 54.2714L220.062 54.2714L220.062 107.584L248.937 79.1464L263.312 79.1464L237.687 104.209L264.75 146.084L250.375 146.084L229.5 112.334L220.062 120.959L220.062 146.084L209.25 146.084L209.25 54.2714Z"/>
<path d="M273.5 79.4589L284.937 79.4589L284.937 146.084L273.5 146.084L273.5 79.4589ZM273.5 54.2714L284.937 54.2714L284.937 67.0214L273.5 67.0214L273.5 54.2714Z"/>
<path d="M301.937 79.1464L312.625 79.1464L312.625 88.6464C315.791 84.7297 319.145 81.9172 322.687 80.2089C326.229 78.5006 330.166 77.6464 334.5 77.6464C344 77.6464 350.416 80.9589 353.75 87.5839C355.583 91.2089 356.5 96.3964 356.5 103.146L356.5 146.084L345.062 146.084L345.062 103.896C345.062 99.8131 344.458 96.5214 343.25 94.0214C341.25 89.8547 337.625 87.7714 332.375 87.7714C329.708 87.7714 327.52 88.0422 325.812 88.5839C322.729 89.5006 320.02 91.3339 317.687 94.0839C315.812 96.2922 314.593 98.5735 314.031 100.928C313.468 103.282 313.187 106.646 313.187 111.021L313.187 146.084L301.937 146.084L301.937 79.1464Z"/>
<path d="M372.875 54.2714L383.687 54.2714L383.687 107.584L412.562 79.1464L426.937 79.1464L401.312 104.209L428.375 146.084L414 146.084L393.125 112.334L383.687 120.959L383.687 146.084L372.875 146.084L372.875 54.2714Z"/>
<path d="M448.375 79.1464L448.375 123.584C448.375 127.001 448.916 129.792 450 131.959C452 135.959 455.729 137.959 461.187 137.959C469.02 137.959 474.354 134.459 477.187 127.459C478.729 123.709 479.5 118.563 479.5 112.021L479.5 79.1464L490.75 79.1464L490.75 146.084L480.125 146.084L480.25 136.209C478.791 138.751 476.979 140.896 474.812 142.646C470.52 146.146 465.312 147.896 459.187 147.896C449.645 147.896 443.145 144.709 439.687 138.334C437.812 134.917 436.875 130.355 436.875 124.646L436.875 79.1464L448.375 79.1464Z"/>
<path d="M510.562 60.4589L521.937 60.4589L521.937 79.1464L532.625 79.1464L532.625 88.3339L521.937 88.3339L521.937 132.021C521.937 134.355 522.729 135.917 524.312 136.709C525.187 137.167 526.645 137.396 528.687 137.396C529.229 137.396 529.812 137.386 530.437 137.365C531.062 137.344 531.791 137.292 532.625 137.209L532.625 146.084C531.333 146.459 529.989 146.73 528.593 146.896C527.198 147.063 525.687 147.146 524.062 147.146C518.812 147.146 515.25 145.803 513.375 143.115C511.5 140.428 510.562 136.938 510.562 132.646L510.562 88.3339L501.5 88.3339L501.5 79.1464L510.562 79.1464L510.562 60.4589Z"/>
<path d="M550.562 125.084C550.895 128.834 551.833 131.709 553.375 133.709C556.208 137.334 561.125 139.146 568.125 139.146C572.291 139.146 575.958 138.24 579.125 136.428C582.291 134.615 583.875 131.813 583.875 128.021C583.875 125.146 582.604 122.959 580.062 121.459C578.437 120.542 575.229 119.48 570.437 118.271L561.5 116.021C555.791 114.605 551.583 113.021 548.875 111.271C544.041 108.23 541.625 104.021 541.625 98.6464C541.625 92.3131 543.906 87.1881 548.468 83.2714C553.031 79.3547 559.166 77.3964 566.875 77.3964C576.958 77.3964 584.229 80.3547 588.687 86.2714C591.479 90.0214 592.833 94.0631 592.75 98.3964L582.125 98.3964C581.916 95.8547 581.02 93.5422 579.437 91.4589C576.854 88.5006 572.375 87.0214 566 87.0214C561.75 87.0214 558.531 87.8339 556.343 89.4589C554.156 91.0839 553.062 93.2297 553.062 95.8964C553.062 98.8131 554.5 101.146 557.375 102.896C559.041 103.938 561.5 104.855 564.75 105.646L572.187 107.459C580.27 109.417 585.687 111.313 588.437 113.146C592.812 116.021 595 120.542 595 126.709C595 132.667 592.739 137.813 588.218 142.146C583.698 146.48 576.812 148.646 567.562 148.646C557.604 148.646 550.552 146.386 546.406 141.865C542.26 137.344 540.041 131.751 539.75 125.084L550.562 125.084Z"/>
<path d="M619.125 79.1464L619.125 123.584C619.125 127.001 619.666 129.792 620.75 131.959C622.75 135.959 626.479 137.959 631.937 137.959C639.77 137.959 645.104 134.459 647.937 127.459C649.479 123.709 650.25 118.563 650.25 112.021L650.25 79.1464L661.5 79.1464L661.5 146.084L650.875 146.084L651 136.209C649.541 138.751 647.729 140.896 645.562 142.646C641.27 146.146 636.062 147.896 629.937 147.896C620.395 147.896 613.895 144.709 610.437 138.334C608.562 134.917 607.625 130.355 607.625 124.646L607.625 79.1464L619.125 79.1464Z"/>
</g>
</g>
</svg>
